<svg xmlns="http://www.w3.org/2000/svg" viewBox="0 0 800 480" width="800" height="480" role="img" aria-label="Noah-Agent Framework">
<defs>
 <linearGradient id="g" x1="0" y1="0" x2="1" y2="1">
  <stop offset="0" stop-color="#10233d"/>
  <stop offset="1" stop-color="#2f7f93"/>
 </linearGradient>
</defs>
<rect width="800" height="480" fill="url(#g)"/>
<g><circle cx="0" cy="0" r="1.1" fill="#ffffff" opacity="0.06"/><circle cx="34" cy="0" r="1.1" fill="#ffffff" opacity="0.06"/><circle cx="68" cy="0" r="1.1" fill="#ffffff" opacity="0.06"/><circle cx="102" cy="0" r="1.1" fill="#ffffff" opacity="0.06"/><circle cx="136" cy="0" r="1.1" fill="#ffffff" opacity="0.06"/><circle cx="170" cy="0" r="1.1" fill="#ffffff" opacity="0.06"/><circle cx="204" cy="0" r="1.1" fill="#ffffff" opacity="0.06"/><circle cx="238" cy="0" r="1.1" fill="#ffffff" opacity="0.06"/><circle cx="272" cy="0" r="1.1" fill="#ffffff" opacity="0.06"/><circle cx="306" cy="0" r="1.1" fill="#ffffff" opacity="0.06"/><circle cx="340" cy="0" r="1.1" fill="#ffffff" opacity="0.06"/><circle cx="374" cy="0" r="1.1" fill="#ffffff" opacity="0.06"/><circle cx="408" cy="0" r="1.1" fill="#ffffff" opacity="0.06"/><circle cx="442" cy="0" r="1.1" fill="#ffffff" opacity="0.06"/><circle cx="476" cy="0" r="1.1" fill="#ffffff" opacity="0.06"/><circle cx="510" cy="0" r="1.1" fill="#ffffff" opacity="0.06"/><circle cx="544" cy="0" r="1.1" fill="#ffffff" opacity="0.06"/><circle cx="578" cy="0" r="1.1" fill="#ffffff" opacity="0.06"/><circle cx="612" cy="0" r="1.1" fill="#ffffff" opacity="0.06"/><circle cx="646" cy="0" r="1.1" fill="#ffffff" opacity="0.06"/><circle cx="680" cy="0" r="1.1" fill="#ffffff" opacity="0.06"/><circle cx="714" cy="0" r="1.1" fill="#ffffff" opacity="0.06"/><circle cx="748" cy="0" r="1.1" fill="#ffffff" opacity="0.06"/><circle cx="782" cy="0" r="1.1" fill="#ffffff" opacity="0.06"/><circle cx="0" cy="34" r="1.1" fill="#ffffff" opacity="0.06"/><circle cx="34" cy="34" r="1.1" fill="#ffffff" opacity="0.06"/><circle cx="68" cy="34" r="1.1" fill="#ffffff" opacity="0.06"/><circle cx="102" cy="34" r="1.1" fill="#ffffff" opacity="0.06"/><circle cx="136" cy="34" r="1.1" fill="#ffffff" opacity="0.06"/><circle cx="170" cy="34" r="1.1" fill="#ffffff" opacity="0.06"/><circle cx="204" cy="34" r="1.1" fill="#ffffff" opacity="0.06"/><circle cx="238" cy="34" r="1.1" fill="#ffffff" opacity="0.06"/><circle cx="272" cy="34" r="1.1" fill="#ffffff" opacity="0.06"/><circle cx="306" cy="34" r="1.1" fill="#ffffff" opacity="0.06"/><circle cx="340" cy="34" r="1.1" fill="#ffffff" opacity="0.06"/><circle cx="374" cy="34" r="1.1" fill="#ffffff" opacity="0.06"/><circle cx="408" cy="34" r="1.1" fill="#ffffff" opacity="0.06"/><circle cx="442" cy="34" r="1.1" fill="#ffffff" opacity="0.06"/><circle cx="476" cy="34" r="1.1" fill="#ffffff" opacity="0.06"/><circle cx="510" cy="34" r="1.1" fill="#ffffff" opacity="0.06"/><circle cx="544" cy="34" r="1.1" fill="#ffffff" opacity="0.06"/><circle cx="578" cy="34" r="1.1" fill="#ffffff" opacity="0.06"/><circle cx="612" cy="34" r="1.1" fill="#ffffff" opacity="0.06"/><circle cx="646" cy="34" r="1.1" fill="#ffffff" opacity="0.06"/><circle cx="680" cy="34" r="1.1" fill="#ffffff" opacity="0.06"/><circle cx="714" cy="34" r="1.1" fill="#ffffff" opacity="0.06"/><circle cx="748" cy="34" r="1.1" fill="#ffffff" opacity="0.06"/><circle cx="782" cy="34" r="1.1" fill="#ffffff" opacity="0.06"/><circle cx="0" cy="68" r="1.1" fill="#ffffff" opacity="0.06"/><circle cx="34" cy="68" r="1.1" fill="#ffffff" opacity="0.06"/><circle cx="68" cy="68" r="1.1" fill="#ffffff" opacity="0.06"/><circle cx="102" cy="68" r="1.1" fill="#ffffff" opacity="0.06"/><circle cx="136" cy="68" r="1.1" fill="#ffffff" opacity="0.06"/><circle cx="170" cy="68" r="1.1" fill="#ffffff" opacity="0.06"/><circle cx="204" cy="68" r="1.1" fill="#ffffff" opacity="0.06"/><circle cx="238" cy="68" r="1.1" fill="#ffffff" opacity="0.06"/><circle cx="272" cy="68" r="1.1" fill="#ffffff" opacity="0.06"/><circle cx="306" cy="68" r="1.1" fill="#ffffff" opacity="0.06"/><circle cx="340" cy="68" r="1.1" fill="#ffffff" opacity="0.06"/><circle cx="374" cy="68" r="1.1" fill="#ffffff" opacity="0.06"/><circle cx="408" cy="68" r="1.1" fill="#ffffff" opacity="0.06"/><circle cx="442" cy="68" r="1.1" fill="#ffffff" opacity="0.06"/><circle cx="476" cy="68" r="1.1" fill="#ffffff" opacity="0.06"/><circle cx="510" cy="68" r="1.1" fill="#ffffff" opacity="0.06"/><circle cx="544" cy="68" r="1.1" fill="#ffffff" opacity="0.06"/><circle cx="578" cy="68" r="1.1" fill="#ffffff" opacity="0.06"/><circle cx="612" cy="68" r="1.1" fill="#ffffff" opacity="0.06"/><circle cx="646" cy="68" r="1.1" fill="#ffffff" opacity="0.06"/><circle cx="680" cy="68" r="1.1" fill="#ffffff" opacity="0.06"/><circle cx="714" cy="68" r="1.1" fill="#ffffff" opacity="0.06"/><circle cx="748" cy="68" r="1.1" fill="#ffffff" opacity="0.06"/><circle cx="782" cy="68" r="1.1" fill="#ffffff" opacity="0.06"/><circle cx="0" cy="102" r="1.1" fill="#ffffff" opacity="0.06"/><circle cx="34" cy="102" r="1.1" fill="#ffffff" opacity="0.06"/><circle cx="68" cy="102" r="1.1" fill="#ffffff" opacity="0.06"/><circle cx="102" cy="102" r="1.1" fill="#ffffff" opacity="0.06"/><circle cx="136" cy="102" r="1.1" fill="#ffffff" opacity="0.06"/><circle cx="170" cy="102" r="1.1" fill="#ffffff" opacity="0.06"/><circle cx="204" cy="102" r="1.1" fill="#ffffff" opacity="0.06"/><circle cx="238" cy="102" r="1.1" fill="#ffffff" opacity="0.06"/><circle cx="272" cy="102" r="1.1" fill="#ffffff" opacity="0.06"/><circle cx="306" cy="102" r="1.1" fill="#ffffff" opacity="0.06"/><circle cx="340" cy="102" r="1.1" fill="#ffffff" opacity="0.06"/><circle cx="374" cy="102" r="1.1" fill="#ffffff" opacity="0.06"/><circle cx="408" cy="102" r="1.1" fill="#ffffff" opacity="0.06"/><circle cx="442" cy="102" r="1.1" fill="#ffffff" opacity="0.06"/><circle cx="476" cy="102" r="1.1" fill="#ffffff" opacity="0.06"/><circle cx="510" cy="102" r="1.1" fill="#ffffff" opacity="0.06"/><circle cx="544" cy="102" r="1.1" fill="#ffffff" opacity="0.06"/><circle cx="578" cy="102" r="1.1" fill="#ffffff" opacity="0.06"/><circle cx="612" cy="102" r="1.1" fill="#ffffff" opacity="0.06"/><circle cx="646" cy="102" r="1.1" fill="#ffffff" opacity="0.06"/><circle cx="680" cy="102" r="1.1" fill="#ffffff" opacity="0.06"/><circle cx="714" cy="102" r="1.1" fill="#ffffff" opacity="0.06"/><circle cx="748" cy="102" r="1.1" fill="#ffffff" opacity="0.06"/><circle cx="782" cy="102" r="1.1" fill="#ffffff" opacity="0.06"/><circle cx="0" cy="136" r="1.1" fill="#ffffff" opacity="0.06"/><circle cx="34" cy="136" r="1.1" fill="#ffffff" opacity="0.06"/><circle cx="68" cy="136" r="1.1" fill="#ffffff" opacity="0.06"/><circle cx="102" cy="136" r="1.1" fill="#ffffff" opacity="0.06"/><circle cx="136" cy="136" r="1.1" fill="#ffffff" opacity="0.06"/><circle cx="170" cy="136" r="1.1" fill="#ffffff" opacity="0.06"/><circle cx="204" cy="136" r="1.1" fill="#ffffff" opacity="0.06"/><circle cx="238" cy="136" r="1.1" fill="#ffffff" opacity="0.06"/><circle cx="272" cy="136" r="1.1" fill="#ffffff" opacity="0.06"/><circle cx="306" cy="136" r="1.1" fill="#ffffff" opacity="0.06"/><circle cx="340" cy="136" r="1.1" fill="#ffffff" opacity="0.06"/><circle cx="374" cy="136" r="1.1" fill="#ffffff" opacity="0.06"/><circle cx="408" cy="136" r="1.1" fill="#ffffff" opacity="0.06"/><circle cx="442" cy="136" r="1.1" fill="#ffffff" opacity="0.06"/><circle cx="476" cy="136" r="1.1" fill="#ffffff" opacity="0.06"/><circle cx="510" cy="136" r="1.1" fill="#ffffff" opacity="0.06"/><circle cx="544" cy="136" r="1.1" fill="#ffffff" opacity="0.06"/><circle cx="578" cy="136" r="1.1" fill="#ffffff" opacity="0.06"/><circle cx="612" cy="136" r="1.1" fill="#ffffff" opacity="0.06"/><circle cx="646" cy="136" r="1.1" fill="#ffffff" opacity="0.06"/><circle cx="680" cy="136" r="1.1" fill="#ffffff" opacity="0.06"/><circle cx="714" cy="136" r="1.1" fill="#ffffff" opacity="0.06"/><circle cx="748" cy="136" r="1.1" fill="#ffffff" opacity="0.06"/><circle cx="782" cy="136" r="1.1" fill="#ffffff" opacity="0.06"/><circle cx="0" cy="170" r="1.1" fill="#ffffff" opacity="0.06"/><circle cx="34" cy="170" r="1.1" fill="#ffffff" opacity="0.06"/><circle cx="68" cy="170" r="1.1" fill="#ffffff" opacity="0.06"/><circle cx="102" cy="170" r="1.1" fill="#ffffff" opacity="0.06"/><circle cx="136" cy="170" r="1.1" fill="#ffffff" opacity="0.06"/><circle cx="170" cy="170" r="1.1" fill="#ffffff" opacity="0.06"/><circle cx="204" cy="170" r="1.1" fill="#ffffff" opacity="0.06"/><circle cx="238" cy="170" r="1.1" fill="#ffffff" opacity="0.06"/><circle cx="272" cy="170" r="1.1" fill="#ffffff" opacity="0.06"/><circle cx="306" cy="170" r="1.1" fill="#ffffff" opacity="0.06"/><circle cx="340" cy="170" r="1.1" fill="#ffffff" opacity="0.06"/><circle cx="374" cy="170" r="1.1" fill="#ffffff" opacity="0.06"/><circle cx="408" cy="170" r="1.1" fill="#ffffff" opacity="0.06"/><circle cx="442" cy="170" r="1.1" fill="#ffffff" opacity="0.06"/><circle cx="476" cy="170" r="1.1" fill="#ffffff" opacity="0.06"/><circle cx="510" cy="170" r="1.1" fill="#ffffff" opacity="0.06"/><circle cx="544" cy="170" r="1.1" fill="#ffffff" opacity="0.06"/><circle cx="578" cy="170" r="1.1" fill="#ffffff" opacity="0.06"/><circle cx="612" cy="170" r="1.1" fill="#ffffff" opacity="0.06"/><circle cx="646" cy="170" r="1.1" fill="#ffffff" opacity="0.06"/><circle cx="680" cy="170" r="1.1" fill="#ffffff" opacity="0.06"/><circle cx="714" cy="170" r="1.1" fill="#ffffff" opacity="0.06"/><circle cx="748" cy="170" r="1.1" fill="#ffffff" opacity="0.06"/><circle cx="782" cy="170" r="1.1" fill="#ffffff" opacity="0.06"/><circle cx="0" cy="204" r="1.1" fill="#ffffff" opacity="0.06"/><circle cx="34" cy="204" r="1.1" fill="#ffffff" opacity="0.06"/><circle cx="68" cy="204" r="1.1" fill="#ffffff" opacity="0.06"/><circle cx="102" cy="204" r="1.1" fill="#ffffff" opacity="0.06"/><circle cx="136" cy="204" r="1.1" fill="#ffffff" opacity="0.06"/><circle cx="170" cy="204" r="1.1" fill="#ffffff" opacity="0.06"/><circle cx="204" cy="204" r="1.1" fill="#ffffff" opacity="0.06"/><circle cx="238" cy="204" r="1.1" fill="#ffffff" opacity="0.06"/><circle cx="272" cy="204" r="1.1" fill="#ffffff" opacity="0.06"/><circle cx="306" cy="204" r="1.1" fill="#ffffff" opacity="0.06"/><circle cx="340" cy="204" r="1.1" fill="#ffffff" opacity="0.06"/><circle cx="374" cy="204" r="1.1" fill="#ffffff" opacity="0.06"/><circle cx="408" cy="204" r="1.1" fill="#ffffff" opacity="0.06"/><circle cx="442" cy="204" r="1.1" fill="#ffffff" opacity="0.06"/><circle cx="476" cy="204" r="1.1" fill="#ffffff" opacity="0.06"/><circle cx="510" cy="204" r="1.1" fill="#ffffff" opacity="0.06"/><circle cx="544" cy="204" r="1.1" fill="#ffffff" opacity="0.06"/><circle cx="578" cy="204" r="1.1" fill="#ffffff" opacity="0.06"/><circle cx="612" cy="204" r="1.1" fill="#ffffff" opacity="0.06"/><circle cx="646" cy="204" r="1.1" fill="#ffffff" opacity="0.06"/><circle cx="680" cy="204" r="1.1" fill="#ffffff" opacity="0.06"/><circle cx="714" cy="204" r="1.1" fill="#ffffff" opacity="0.06"/><circle cx="748" cy="204" r="1.1" fill="#ffffff" opacity="0.06"/><circle cx="782" cy="204" r="1.1" fill="#ffffff" opacity="0.06"/><circle cx="0" cy="238" r="1.1" fill="#ffffff" opacity="0.06"/><circle cx="34" cy="238" r="1.1" fill="#ffffff" opacity="0.06"/><circle cx="68" cy="238" r="1.1" fill="#ffffff" opacity="0.06"/><circle cx="102" cy="238" r="1.1" fill="#ffffff" opacity="0.06"/><circle cx="136" cy="238" r="1.1" fill="#ffffff" opacity="0.06"/><circle cx="170" cy="238" r="1.1" fill="#ffffff" opacity="0.06"/><circle cx="204" cy="238" r="1.1" fill="#ffffff" opacity="0.06"/><circle cx="238" cy="238" r="1.1" fill="#ffffff" opacity="0.06"/><circle cx="272" cy="238" r="1.1" fill="#ffffff" opacity="0.06"/><circle cx="306" cy="238" r="1.1" fill="#ffffff" opacity="0.06"/><circle cx="340" cy="238" r="1.1" fill="#ffffff" opacity="0.06"/><circle cx="374" cy="238" r="1.1" fill="#ffffff" opacity="0.06"/><circle cx="408" cy="238" r="1.1" fill="#ffffff" opacity="0.06"/><circle cx="442" cy="238" r="1.1" fill="#ffffff" opacity="0.06"/><circle cx="476" cy="238" r="1.1" fill="#ffffff" opacity="0.06"/><circle cx="510" cy="238" r="1.1" fill="#ffffff" opacity="0.06"/><circle cx="544" cy="238" r="1.1" fill="#ffffff" opacity="0.06"/><circle cx="578" cy="238" r="1.1" fill="#ffffff" opacity="0.06"/><circle cx="612" cy="238" r="1.1" fill="#ffffff" opacity="0.06"/><circle cx="646" cy="238" r="1.1" fill="#ffffff" opacity="0.06"/><circle cx="680" cy="238" r="1.1" fill="#ffffff" opacity="0.06"/><circle cx="714" cy="238" r="1.1" fill="#ffffff" opacity="0.06"/><circle cx="748" cy="238" r="1.1" fill="#ffffff" opacity="0.06"/><circle cx="782" cy="238" r="1.1" fill="#ffffff" opacity="0.06"/><circle cx="0" cy="272" r="1.1" fill="#ffffff" opacity="0.06"/><circle cx="34" cy="272" r="1.1" fill="#ffffff" opacity="0.06"/><circle cx="68" cy="272" r="1.1" fill="#ffffff" opacity="0.06"/><circle cx="102" cy="272" r="1.1" fill="#ffffff" opacity="0.06"/><circle cx="136" cy="272" r="1.1" fill="#ffffff" opacity="0.06"/><circle cx="170" cy="272" r="1.1" fill="#ffffff" opacity="0.06"/><circle cx="204" cy="272" r="1.1" fill="#ffffff" opacity="0.06"/><circle cx="238" cy="272" r="1.1" fill="#ffffff" opacity="0.06"/><circle cx="272" cy="272" r="1.1" fill="#ffffff" opacity="0.06"/><circle cx="306" cy="272" r="1.1" fill="#ffffff" opacity="0.06"/><circle cx="340" cy="272" r="1.1" fill="#ffffff" opacity="0.06"/><circle cx="374" cy="272" r="1.1" fill="#ffffff" opacity="0.06"/><circle cx="408" cy="272" r="1.1" fill="#ffffff" opacity="0.06"/><circle cx="442" cy="272" r="1.1" fill="#ffffff" opacity="0.06"/><circle cx="476" cy="272" r="1.1" fill="#ffffff" opacity="0.06"/><circle cx="510" cy="272" r="1.1" fill="#ffffff" opacity="0.06"/><circle cx="544" cy="272" r="1.1" fill="#ffffff" opacity="0.06"/><circle cx="578" cy="272" r="1.1" fill="#ffffff" opacity="0.06"/><circle cx="612" cy="272" r="1.1" fill="#ffffff" opacity="0.06"/><circle cx="646" cy="272" r="1.1" fill="#ffffff" opacity="0.06"/><circle cx="680" cy="272" r="1.1" fill="#ffffff" opacity="0.06"/><circle cx="714" cy="272" r="1.1" fill="#ffffff" opacity="0.06"/><circle cx="748" cy="272" r="1.1" fill="#ffffff" opacity="0.06"/><circle cx="782" cy="272" r="1.1" fill="#ffffff" opacity="0.06"/><circle cx="0" cy="306" r="1.1" fill="#ffffff" opacity="0.06"/><circle cx="34" cy="306" r="1.1" fill="#ffffff" opacity="0.06"/><circle cx="68" cy="306" r="1.1" fill="#ffffff" opacity="0.06"/><circle cx="102" cy="306" r="1.1" fill="#ffffff" opacity="0.06"/><circle cx="136" cy="306" r="1.1" fill="#ffffff" opacity="0.06"/><circle cx="170" cy="306" r="1.1" fill="#ffffff" opacity="0.06"/><circle cx="204" cy="306" r="1.1" fill="#ffffff" opacity="0.06"/><circle cx="238" cy="306" r="1.1" fill="#ffffff" opacity="0.06"/><circle cx="272" cy="306" r="1.1" fill="#ffffff" opacity="0.06"/><circle cx="306" cy="306" r="1.1" fill="#ffffff" opacity="0.06"/><circle cx="340" cy="306" r="1.1" fill="#ffffff" opacity="0.06"/><circle cx="374" cy="306" r="1.1" fill="#ffffff" opacity="0.06"/><circle cx="408" cy="306" r="1.1" fill="#ffffff" opacity="0.06"/><circle cx="442" cy="306" r="1.1" fill="#ffffff" opacity="0.06"/><circle cx="476" cy="306" r="1.1" fill="#ffffff" opacity="0.06"/><circle cx="510" cy="306" r="1.1" fill="#ffffff" opacity="0.06"/><circle cx="544" cy="306" r="1.1" fill="#ffffff" opacity="0.06"/><circle cx="578" cy="306" r="1.1" fill="#ffffff" opacity="0.06"/><circle cx="612" cy="306" r="1.1" fill="#ffffff" opacity="0.06"/><circle cx="646" cy="306" r="1.1" fill="#ffffff" opacity="0.06"/><circle cx="680" cy="306" r="1.1" fill="#ffffff" opacity="0.06"/><circle cx="714" cy="306" r="1.1" fill="#ffffff" opacity="0.06"/><circle cx="748" cy="306" r="1.1" fill="#ffffff" opacity="0.06"/><circle cx="782" cy="306" r="1.1" fill="#ffffff" opacity="0.06"/><circle cx="0" cy="340" r="1.1" fill="#ffffff" opacity="0.06"/><circle cx="34" cy="340" r="1.1" fill="#ffffff" opacity="0.06"/><circle cx="68" cy="340" r="1.1" fill="#ffffff" opacity="0.06"/><circle cx="102" cy="340" r="1.1" fill="#ffffff" opacity="0.06"/><circle cx="136" cy="340" r="1.1" fill="#ffffff" opacity="0.06"/><circle cx="170" cy="340" r="1.1" fill="#ffffff" opacity="0.06"/><circle cx="204" cy="340" r="1.1" fill="#ffffff" opacity="0.06"/><circle cx="238" cy="340" r="1.1" fill="#ffffff" opacity="0.06"/><circle cx="272" cy="340" r="1.1" fill="#ffffff" opacity="0.06"/><circle cx="306" cy="340" r="1.1" fill="#ffffff" opacity="0.06"/><circle cx="340" cy="340" r="1.1" fill="#ffffff" opacity="0.06"/><circle cx="374" cy="340" r="1.1" fill="#ffffff" opacity="0.06"/><circle cx="408" cy="340" r="1.1" fill="#ffffff" opacity="0.06"/><circle cx="442" cy="340" r="1.1" fill="#ffffff" opacity="0.06"/><circle cx="476" cy="340" r="1.1" fill="#ffffff" opacity="0.06"/><circle cx="510" cy="340" r="1.1" fill="#ffffff" opacity="0.06"/><circle cx="544" cy="340" r="1.1" fill="#ffffff" opacity="0.06"/><circle cx="578" cy="340" r="1.1" fill="#ffffff" opacity="0.06"/><circle cx="612" cy="340" r="1.1" fill="#ffffff" opacity="0.06"/><circle cx="646" cy="340" r="1.1" fill="#ffffff" opacity="0.06"/><circle cx="680" cy="340" r="1.1" fill="#ffffff" opacity="0.06"/><circle cx="714" cy="340" r="1.1" fill="#ffffff" opacity="0.06"/><circle cx="748" cy="340" r="1.1" fill="#ffffff" opacity="0.06"/><circle cx="782" cy="340" r="1.1" fill="#ffffff" opacity="0.06"/><circle cx="0" cy="374" r="1.1" fill="#ffffff" opacity="0.06"/><circle cx="34" cy="374" r="1.1" fill="#ffffff" opacity="0.06"/><circle cx="68" cy="374" r="1.1" fill="#ffffff" opacity="0.06"/><circle cx="102" cy="374" r="1.1" fill="#ffffff" opacity="0.06"/><circle cx="136" cy="374" r="1.1" fill="#ffffff" opacity="0.06"/><circle cx="170" cy="374" r="1.1" fill="#ffffff" opacity="0.06"/><circle cx="204" cy="374" r="1.1" fill="#ffffff" opacity="0.06"/><circle cx="238" cy="374" r="1.1" fill="#ffffff" opacity="0.06"/><circle cx="272" cy="374" r="1.1" fill="#ffffff" opacity="0.06"/><circle cx="306" cy="374" r="1.1" fill="#ffffff" opacity="0.06"/><circle cx="340" cy="374" r="1.1" fill="#ffffff" opacity="0.06"/><circle cx="374" cy="374" r="1.1" fill="#ffffff" opacity="0.06"/><circle cx="408" cy="374" r="1.1" fill="#ffffff" opacity="0.06"/><circle cx="442" cy="374" r="1.1" fill="#ffffff" opacity="0.06"/><circle cx="476" cy="374" r="1.1" fill="#ffffff" opacity="0.06"/><circle cx="510" cy="374" r="1.1" fill="#ffffff" opacity="0.06"/><circle cx="544" cy="374" r="1.1" fill="#ffffff" opacity="0.06"/><circle cx="578" cy="374" r="1.1" fill="#ffffff" opacity="0.06"/><circle cx="612" cy="374" r="1.1" fill="#ffffff" opacity="0.06"/><circle cx="646" cy="374" r="1.1" fill="#ffffff" opacity="0.06"/><circle cx="680" cy="374" r="1.1" fill="#ffffff" opacity="0.06"/><circle cx="714" cy="374" r="1.1" fill="#ffffff" opacity="0.06"/><circle cx="748" cy="374" r="1.1" fill="#ffffff" opacity="0.06"/><circle cx="782" cy="374" r="1.1" fill="#ffffff" opacity="0.06"/><circle cx="0" cy="408" r="1.1" fill="#ffffff" opacity="0.06"/><circle cx="34" cy="408" r="1.1" fill="#ffffff" opacity="0.06"/><circle cx="68" cy="408" r="1.1" fill="#ffffff" opacity="0.06"/><circle cx="102" cy="408" r="1.1" fill="#ffffff" opacity="0.06"/><circle cx="136" cy="408" r="1.1" fill="#ffffff" opacity="0.06"/><circle cx="170" cy="408" r="1.1" fill="#ffffff" opacity="0.06"/><circle cx="204" cy="408" r="1.1" fill="#ffffff" opacity="0.06"/><circle cx="238" cy="408" r="1.1" fill="#ffffff" opacity="0.06"/><circle cx="272" cy="408" r="1.1" fill="#ffffff" opacity="0.06"/><circle cx="306" cy="408" r="1.1" fill="#ffffff" opacity="0.06"/><circle cx="340" cy="408" r="1.1" fill="#ffffff" opacity="0.06"/><circle cx="374" cy="408" r="1.1" fill="#ffffff" opacity="0.06"/><circle cx="408" cy="408" r="1.1" fill="#ffffff" opacity="0.06"/><circle cx="442" cy="408" r="1.1" fill="#ffffff" opacity="0.06"/><circle cx="476" cy="408" r="1.1" fill="#ffffff" opacity="0.06"/><circle cx="510" cy="408" r="1.1" fill="#ffffff" opacity="0.06"/><circle cx="544" cy="408" r="1.1" fill="#ffffff" opacity="0.06"/><circle cx="578" cy="408" r="1.1" fill="#ffffff" opacity="0.06"/><circle cx="612" cy="408" r="1.1" fill="#ffffff" opacity="0.06"/><circle cx="646" cy="408" r="1.1" fill="#ffffff" opacity="0.06"/><circle cx="680" cy="408" r="1.1" fill="#ffffff" opacity="0.06"/><circle cx="714" cy="408" r="1.1" fill="#ffffff" opacity="0.06"/><circle cx="748" cy="408" r="1.1" fill="#ffffff" opacity="0.06"/><circle cx="782" cy="408" r="1.1" fill="#ffffff" opacity="0.06"/><circle cx="0" cy="442" r="1.1" fill="#ffffff" opacity="0.06"/><circle cx="34" cy="442" r="1.1" fill="#ffffff" opacity="0.06"/><circle cx="68" cy="442" r="1.1" fill="#ffffff" opacity="0.06"/><circle cx="102" cy="442" r="1.1" fill="#ffffff" opacity="0.06"/><circle cx="136" cy="442" r="1.1" fill="#ffffff" opacity="0.06"/><circle cx="170" cy="442" r="1.1" fill="#ffffff" opacity="0.06"/><circle cx="204" cy="442" r="1.1" fill="#ffffff" opacity="0.06"/><circle cx="238" cy="442" r="1.1" fill="#ffffff" opacity="0.06"/><circle cx="272" cy="442" r="1.1" fill="#ffffff" opacity="0.06"/><circle cx="306" cy="442" r="1.1" fill="#ffffff" opacity="0.06"/><circle cx="340" cy="442" r="1.1" fill="#ffffff" opacity="0.06"/><circle cx="374" cy="442" r="1.1" fill="#ffffff" opacity="0.06"/><circle cx="408" cy="442" r="1.1" fill="#ffffff" opacity="0.06"/><circle cx="442" cy="442" r="1.1" fill="#ffffff" opacity="0.06"/><circle cx="476" cy="442" r="1.1" fill="#ffffff" opacity="0.06"/><circle cx="510" cy="442" r="1.1" fill="#ffffff" opacity="0.06"/><circle cx="544" cy="442" r="1.1" fill="#ffffff" opacity="0.06"/><circle cx="578" cy="442" r="1.1" fill="#ffffff" opacity="0.06"/><circle cx="612" cy="442" r="1.1" fill="#ffffff" opacity="0.06"/><circle cx="646" cy="442" r="1.1" fill="#ffffff" opacity="0.06"/><circle cx="680" cy="442" r="1.1" fill="#ffffff" opacity="0.06"/><circle cx="714" cy="442" r="1.1" fill="#ffffff" opacity="0.06"/><circle cx="748" cy="442" r="1.1" fill="#ffffff" opacity="0.06"/><circle cx="782" cy="442" r="1.1" fill="#ffffff" opacity="0.06"/><circle cx="0" cy="476" r="1.1" fill="#ffffff" opacity="0.06"/><circle cx="34" cy="476" r="1.1" fill="#ffffff" opacity="0.06"/><circle cx="68" cy="476" r="1.1" fill="#ffffff" opacity="0.06"/><circle cx="102" cy="476" r="1.1" fill="#ffffff" opacity="0.06"/><circle cx="136" cy="476" r="1.1" fill="#ffffff" opacity="0.06"/><circle cx="170" cy="476" r="1.1" fill="#ffffff" opacity="0.06"/><circle cx="204" cy="476" r="1.1" fill="#ffffff" opacity="0.06"/><circle cx="238" cy="476" r="1.1" fill="#ffffff" opacity="0.06"/><circle cx="272" cy="476" r="1.1" fill="#ffffff" opacity="0.06"/><circle cx="306" cy="476" r="1.1" fill="#ffffff" opacity="0.06"/><circle cx="340" cy="476" r="1.1" fill="#ffffff" opacity="0.06"/><circle cx="374" cy="476" r="1.1" fill="#ffffff" opacity="0.06"/><circle cx="408" cy="476" r="1.1" fill="#ffffff" opacity="0.06"/><circle cx="442" cy="476" r="1.1" fill="#ffffff" opacity="0.06"/><circle cx="476" cy="476" r="1.1" fill="#ffffff" opacity="0.06"/><circle cx="510" cy="476" r="1.1" fill="#ffffff" opacity="0.06"/><circle cx="544" cy="476" r="1.1" fill="#ffffff" opacity="0.06"/><circle cx="578" cy="476" r="1.1" fill="#ffffff" opacity="0.06"/><circle cx="612" cy="476" r="1.1" fill="#ffffff" opacity="0.06"/><circle cx="646" cy="476" r="1.1" fill="#ffffff" opacity="0.06"/><circle cx="680" cy="476" r="1.1" fill="#ffffff" opacity="0.06"/><circle cx="714" cy="476" r="1.1" fill="#ffffff" opacity="0.06"/><circle cx="748" cy="476" r="1.1" fill="#ffffff" opacity="0.06"/><circle cx="782" cy="476" r="1.1" fill="#ffffff" opacity="0.06"/></g>
<circle cx="700" cy="120" r="150" fill="none" stroke="#ffffff" stroke-width="1.2" opacity="0.10"/>
<circle cx="700" cy="120" r="95" fill="none" stroke="#ffffff" stroke-width="1.2" opacity="0.10"/>
<circle cx="700" cy="120" r="45" fill="none" stroke="#f2913d" stroke-width="2" opacity="0.55"/>
<rect x="60" y="70" width="46" height="4" fill="#f2913d"/>
<text x="60" y="112" font-family="Helvetica,Arial,sans-serif" font-size="20" font-weight="700" letter-spacing="2" fill="#f2913d">AGENTS · FORTRAN</text>
<text x="60" y="219" font-family="Georgia,'Times New Roman',serif" font-size="46" font-weight="700" fill="#ffffff">Noah-Agent</text>
<text x="60" y="281" font-family="Georgia,'Times New Roman',serif" font-size="46" font-weight="700" fill="#ffffff">Framework</text>

<text x="740" y="440" text-anchor="end" font-family="Helvetica,Arial,sans-serif" font-size="18" font-weight="600" fill="#ffffff" opacity="0.55">ktwu01</text>
</svg>